#tb 0: 1/44100
#media_type 0: audio
#codec_id 0: pcm_s16le
#sample_rate 0: 44100
#channel_layout 0: 0
#channel_layout_name 0: 9 channels
0,          0,          0,      512,     9216, 0xd561bb2b
0,        512,        512,      512,     9216, 0x591805f9
0,       1024,       1024,      512,     9216, 0xd46fecd6
0,       1536,       1536,      512,     9216, 0x1e1f176b
0,       2048,       2048,      512,     9216, 0xe383f1a6
0,       2560,       2560,      512,     9216, 0xc628c661
0,       3072,       3072,      512,     9216, 0x1ad09914
0,       3584,       3584,      512,     9216, 0x798533cc
0,       4096,       4096,      512,     9216, 0x4913d581
0,       4608,       4608,      512,     9216, 0x59f506b3
0,       5120,       5120,      512,     9216, 0x8885fa28
0,       5632,       5632,      512,     9216, 0x769ffa95
0,       6144,       6144,      512,     9216, 0xc636cc46
0,       6656,       6656,      512,     9216, 0x4740f34b
0,       7168,       7168,      512,     9216, 0x00d2de28
0,       7680,       7680,      512,     9216, 0x704a07fc
0,       8192,       8192,      512,     9216, 0x54a4f682
0,       8704,       8704,      512,     9216, 0xd6dac181
0,       9216,       9216,      512,     9216, 0xfcd6fe28
0,       9728,       9728,      512,     9216, 0x5c41cbdc
